<?xml version="1.0" encoding="UTF-8"?>
<svg width="32" height="32" viewBox="0 0 32 32" fill="none" xmlns="http://www.w3.org/2000/svg">
  <defs>
    <linearGradient id="gradient" x1="0%" y1="0%" x2="100%" y2="100%">
      <stop offset="0%" style="stop-color:#10B981"/>
      <stop offset="100%" style="stop-color:#8B5CF6"/>
    </linearGradient>
  </defs>
  <path d="M16 4C10 4 4 12 4 20C4 26 9 28 16 28C23 28 28 26 28 20C28 12 22 4 16 4Z" fill="url(#gradient)"/>
  <path d="M16 8V24M16 8C13 12 10 16 10 20M16 8C19 12 22 16 22 20M16 24C13 24 10 22 10 20M16 24C19 24 22 22 22 20" stroke="white" stroke-width="2" stroke-linecap="round"/>
</svg> 